<?xml version="1.0" encoding="utf-8"?>
<!-- Generator: Adobe Illustrator 24.1.2, SVG Export Plug-In . SVG Version: 6.00 Build 0)  -->
<svg version="1.1" id="Слой_1" xmlns="http://www.w3.org/2000/svg" xmlns:xlink="http://www.w3.org/1999/xlink" x="0px" y="0px"
	 viewBox="0 0 1150 768" enable-background="new 0 0 1150 768" xml:space="preserve">
<g id="layer1">
	<linearGradient id="path28_1_" gradientUnits="userSpaceOnUse" x1="872.19" y1="339.86" x2="872.19" y2="851.34">
		<stop  offset="0" style="stop-color:#FF2F96"/>
		<stop  offset="1" style="stop-color:#FF8F5A"/>
	</linearGradient>
	<path id="path28" fill="url(#path28_1_)" d="M575.33,844.78c-27.25-12.89-43.21-29.95-54.21-57.89
		c-5.64-14.34-7.1-23.62-7.99-50.87c-1.39-42.49,3.1-66.49,22.09-118.16c47.01-127.92,141.89-227.75,253.06-266.3
		c31.21-10.82,89.69-14.94,126.55-8.91c82.64,13.51,166.54,73.14,233.7,166.09c68.79,95.22,98.04,199.56,75.42,269.05
		c-9.46,29.05-32.33,51.5-66.23,65.02c-13.07,5.21-43.59,6.01-290.71,7.58C591.6,852.14,590.85,852.12,575.33,844.78L575.33,844.78z
		"/>
</g>
</svg>
